# This file uses centimeters as units for non-parametric coordinates.

mtllib Gravity Material.mtl
g default
v 0.934172 0.752071 -0.130848
v 0.934172 1.416002 0.130848
v 0.356822 1.426600 -0.869096
v 0.577350 1.832883 -0.325415
v 0.577350 0.758621 -0.748847
v 0.356822 0.741473 0.869096
v 0.577350 0.335190 0.325415
v 0.577350 1.409452 0.748847
v -0.934172 0.752071 -0.130848
v -0.934172 1.416002 0.130848
v -0.356822 0.741473 0.869096
v -0.577350 0.335190 0.325415
v -0.577350 1.409452 0.748847
v -0.356822 1.426600 -0.869096
v -0.577350 1.832883 -0.325415
v -0.577350 0.758621 -0.748847
v 0.000000 0.084093 -0.010598
v 0.000000 1.822285 0.674529
v 0.000000 2.083980 0.010598
v 0.000000 0.345788 -0.674529
vt 0.117238 0.432976
vt 0.223788 0.500600
vt 0.181908 0.625090
vt 0.057830 0.624540
vt 0.018512 0.507931
vt 0.535250 0.439920
vt 0.119195 0.819118
vt 0.597563 0.247590
vt 0.637434 0.366014
vt 0.323604 0.820317
vt 0.667119 0.059029
vt 0.703862 0.177079
vt 0.283536 0.700413
vt 0.386993 0.625242
vt 0.513928 0.626578
vt 0.446662 0.821028
vt 0.349855 0.502234
vt 0.191901 0.379397
vt 0.870389 0.440908
vt 0.390998 0.382023
vt 0.553762 0.510733
vt 0.807575 0.249608
vt 0.746726 0.059913
vt 0.870681 0.059314
vt 0.766779 0.368328
vt 0.701647 0.559017
vt 0.602583 0.486011
vt 0.483912 0.703742
vt 0.241697 0.819118
vt 0.543268 0.053915
vt 0.434689 0.369960
vt 0.081339 0.701084
vt 0.471022 0.251449
vt 0.501076 0.168922
vt 0.800795 0.486125
vt 0.293307 0.308109
vt 0.454452 0.436554
vt 0.968756 0.367896
vt 0.910441 0.175774
vt 0.928803 0.250555
vn 0.934172 -0.331965 -0.130848
vn 0.577350 -0.325415 -0.748847
vn 0.356822 0.342563 -0.869096
vn 0.577350 0.748847 -0.325415
vn 0.934172 0.331965 0.130848
vn 0.577350 0.325415 0.748847
vn 0.356822 -0.342563 0.869096
vn 0.577350 -0.748847 0.325415
vn 0.000000 -0.999944 -0.010598
vn 0.000000 -0.738249 -0.674529
vn -0.356822 -0.342563 0.869096
vn -0.577350 -0.748847 0.325415
vn -0.934172 -0.331965 -0.130848
vn -0.577350 -0.325415 -0.748847
vn -0.356822 0.342563 -0.869096
vn -0.577350 0.748847 -0.325415
vn 0.000000 0.999944 0.010598
vn 0.000000 0.738249 0.674529
vn -0.577350 0.325415 0.748847
vn -0.934172 0.331965 0.130848
s 1
g pSolid1
usemtl phong1SG
f 1/33/1 5/8/2 3/9/3 4/6/4 2/31/5
f 8/3/6 6/13/7 7/29/8 1/7/1 2/32/5
f 1/34/1 7/30/8 17/11/9 20/12/10 5/8/2
f 6/13/7 11/14/11 12/28/12 17/16/9 7/10/8
f 17/23/9 12/24/12 9/39/13 16/22/14 20/12/10
f 5/8/2 20/12/10 16/22/14 14/25/15 3/9/3
f 3/9/3 14/25/15 15/35/16 19/26/17 4/27/4
f 2/4/5 4/5/4 19/1/17 18/2/18 8/3/6
f 8/3/6 18/2/18 13/17/19 11/14/11 6/13/7
f 9/21/13 12/15/12 11/14/11 13/17/19 10/37/20
f 10/20/20 13/17/19 18/2/18 19/18/17 15/36/16
f 10/38/20 15/19/16 14/25/15 16/22/14 9/40/13
